<?xml version="1.0" encoding="iso-8859-1"?>
<!-- Generator: Adobe Illustrator 16.0.0, SVG Export Plug-In . SVG Version: 6.00 Build 0)  -->
<!DOCTYPE svg PUBLIC "-//W3C//DTD SVG 1.1//EN" "http://www.w3.org/Graphics/SVG/1.1/DTD/svg11.dtd">
<svg version="1.1" id="Capa_1" xmlns="http://www.w3.org/2000/svg" xmlns:xlink="http://www.w3.org/1999/xlink" x="0px" y="0px"
	 width="429.064px" height="429.065px" viewBox="0 0 429.064 429.065" style="enable-background:new 0 0 429.064 429.065;"
	 xml:space="preserve">
<g>
	<path d="M422.548,25.993c-4.02-2.451-9.117-2.634-13.301-0.476L259.082,102.9h-16.748c-5.523,0-10,4.477-10,10v42.75
		c0,5.523,4.477,10,10,10h9.277v22.48h-26.666L212.534,29.2c-0.357-4.582-4.181-8.117-8.776-8.117H162.39
		c-4.596,0-8.417,3.535-8.774,8.117l-12.413,158.93h-11.71v-38.16c0-1.887-1.528-3.417-3.416-3.417H113.85v-26.644
		c0-3.37-2.732-6.102-6.102-6.102H42.277c-3.369,0-6.102,2.732-6.102,6.102v68.22H8.803c-4.86,0-8.803,3.941-8.803,8.802v81.748
		c0,4.861,3.942,8.803,8.803,8.803h40.709v111.696c0,4.861,3.941,8.803,8.803,8.803h58.199c4.86,0,8.803-3.941,8.803-8.803V287.483
		H240.85V399.18c0,4.86,3.941,8.802,8.804,8.802h58.199c4.859,0,8.803-3.941,8.803-8.802V287.483h40.708
		c4.862,0,8.803-3.941,8.803-8.803v-81.748c0-4.861-3.939-8.802-8.803-8.802h-69.407v-22.48h7.879c5.523,0,10-4.477,10-10v-7.864
		L423.53,61.133c3.466-2.55,5.534-6.643,5.534-10.948V37.599C429.064,32.891,426.568,28.445,422.548,25.993z M195.062,38.688
		l-0.03,0.11l4.49,54.377L169.02,60.356l-0.194,0.181l1.706-21.849H195.062z M188.596,118.143l-27.663,43.456l5.275-67.544
		L188.596,118.143z M173.678,188.132l29.817-46.84l3.868,46.842L173.678,188.132z M412.244,48.554l-106.41,78.344V112.9
		c0-5.523-4.477-10-10-10h-0.029l116.439-60.004V48.554z"/>
</g>
<g>
</g>
<g>
</g>
<g>
</g>
<g>
</g>
<g>
</g>
<g>
</g>
<g>
</g>
<g>
</g>
<g>
</g>
<g>
</g>
<g>
</g>
<g>
</g>
<g>
</g>
<g>
</g>
<g>
</g>
</svg>
